<svg
  xmlns="http://www.w3.org/2000/svg" viewBox="0 0 100 100" fill="currentColor" aria-label="Fuel">
  <path d="M87 28.6l1.3.4c1.4.5 2.2 1.7 2.2 3l.1 52.3c0 8-6.6 14.6-14.6 14.7-17 0-34.3.5-51.3 0-8.4-.2-15.2-5.9-15.2-14.6l-.1-64C9.4 9.6 18.2.8 29 .8h15c11.8 0 19.6 8.7 20 20l.6.3 1.7-5.2a3.2 3.2 0 014-2l16.4 5.5c1.7.5 2.6 2.4 2 4zm-62.3 64c17-.5 34.3 0 51.3 0 4.5 0 8.2-3.8 8.2-8.3v-50l-24.5-8a3.2 3.2 0 01-2.2-3.3c0-8.7-3.6-15.8-13.3-15.8H29c-7.3 0-13.2 6-13.2 13.2l.2 31.8c0 10.4.2 21 0 31.5-.2 5.3 3.3 9 8.7 8.9zM27 12.3h19c3.6 0 6.6 3 6.6 6.6v4.5c0 3.7-3 6.6-6.6 6.6H27c-3.6 0-6.6-2.9-6.6-6.5v-4.6c0-3.6 3-6.6 6.6-6.6zm19 6.4h-19l-.1.2v4.6l.1.1h19s.2 0 .2-.2V19l-.2-.2zm35.7 5.7L71.4 21l-.7 2.1 10.2 3.4z"/>
</svg>