<svg
  xmlns="http://www.w3.org/2000/svg" viewBox="0 0 100 100" fill="#273583" aria-label="No carbohydrates">
  <path d="M50 .6a49.4 49.4 0 10.1 98.9A49.4 49.4 0 0050 .6zM50 97a47 47 0 01-34-79.1l7.3 7.2A14.3 14.3 0 0027 43.6V77c0 3 2.3 5.2 5.2 5.2h35.4c2.9 0 5.2-2.3 5.2-5.2v-2.3l9.3 9.3A46.7 46.7 0 0150 96.9zm20.5-24.7V77c0 1.5-1.3 2.8-2.8 2.8H32.3a2.7 2.7 0 01-2.8-2.8V43c0-.4-.2-.8-.5-1a11.9 11.9 0 01-3.9-15.1zm-44-47.5a12 12 0 018.8-4.5c1.7 0 3.5.3 4.9.8a32 32 0 0019.6 0A12.1 12.1 0 0176 31c.4 4.3-1.5 8.4-5 10.8-.3.3-.5.7-.5 1v25.8zM84 82.2l-11-11V43.6c3.9-3 6-7.7 5.5-12.7A14.4 14.4 0 0059 18.7c-6 1.5-12.4 2-18 0A14.4 14.4 0 0024.7 23l-7-7A46.7 46.7 0 0197 50c0 12.5-5 23.8-13 32.2z"/>
</svg>