<svg
  xmlns="http://www.w3.org/2000/svg" viewBox="0 0 100 100" stroke="currentColor" stroke-width="2.3" fill="none" aria-label="Natural ingredients">
  <circle cx="50" cy="50" r="49.2"/>
  <path d="M65.09 44.1a15.74 15.74 0 00-31.49 0m34.78-9.04l8.7-3.61m-47.61 3.6l-8.7-3.6M37.01 15.6l3.68 8.68m-13.3-1.84l6.77 6.55M60.37 15.6l-3.68 8.68m13.78-1.84l-6.79 6.55m-15-6.4v-9.45" stroke-linecap="round"/>
  <path d="M21.94 59.84v-4.13l-.08-1.61-.14-1.58h.06l.97 2.01 2.94 5.3h1.72V50.4h-1.6v4.1l.07 1.64.14 1.58h-.06l-.96-2-2.95-5.3h-1.72v9.43zm9.1 0l.74-2.55h3.17l.74 2.55h1.76l-3.07-9.44H32.4l-3.07 9.44zm3.54-3.87h-2.4l.33-1.15.43-1.54.4-1.58h.07l.4 1.58.45 1.54zm7.46 3.87v-8.02h2.73V50.4h-7.13v1.41h2.72v8.03zm8.6.17c.55 0 1.04-.08 1.48-.23s.81-.41 1.13-.76.54-.8.7-1.34.25-1.2.25-1.98v-5.3h-1.6v5.43c0 .5-.05.94-.14 1.29s-.23.63-.4.84-.39.37-.63.46-.5.13-.79.13-.55-.04-.78-.13-.43-.25-.6-.46-.3-.5-.4-.84-.14-.78-.14-1.3V50.4h-1.67v5.3c0 .78.08 1.44.25 1.98s.41.99.72 1.33.7.6 1.13.76.93.24 1.48.24zm8.36-.17v-3.7h1.44l2.03 3.7h1.88L62.1 55.9c.57-.2 1.02-.5 1.36-.95s.52-1.03.52-1.75c0-.53-.1-.97-.27-1.33a2.27 2.27 0 00-.73-.86c-.3-.21-.67-.37-1.1-.47a6.18 6.18 0 00-1.37-.14h-3.19v9.44zm1.34-5.02h-1.35v-3.08h1.35c.64 0 1.13.11 1.48.32s.5.6.5 1.14c0 .54-.16.94-.5 1.21s-.84.4-1.48.4zm6.68 5.02l.74-2.55h3.17l.74 2.55h1.76l-3.08-9.44H68.4l-3.07 9.44zm3.54-3.87h-2.4l.33-1.15.43-1.54.4-1.58h.06l.41 1.58.44 1.54zm10.4 3.87v-1.41h-3.92V50.4h-1.68v9.44zm-62 10.5v-6.87h-1.22v6.86zm3.46 0v-3l-.06-1.18-.1-1.15h.04l.7 1.46 2.14 3.87h1.25v-6.87h-1.16v2.98l.06 1.19.1 1.15h-.04l-.7-1.46-2.15-3.86h-1.25v6.86zm9.15.12c.47 0 .9-.08 1.27-.24s.7-.35.92-.58v-3.02h-2.39v1h1.3v1.48c-.11.1-.26.17-.43.22s-.36.08-.56.08c-.69 0-1.21-.22-1.57-.66s-.53-1.06-.53-1.84a3.42 3.42 0 01.15-1.04c.1-.31.24-.57.42-.79a1.83 1.83 0 01.64-.49c.24-.11.52-.17.83-.17.32 0 .59.06.8.17s.41.26.58.43l.65-.8c-.21-.21-.49-.42-.83-.6s-.75-.26-1.24-.26a3.35 3.35 0 00-1.28.24 2.9 2.9 0 00-1.03.7c-.3.31-.52.69-.68 1.13s-.26.95-.26 1.5c0 .57.08 1.08.24 1.52s.4.8.68 1.1.63.54 1.03.69.82.23 1.29.23zm5.49-.13v-2.68h1.05l1.48 2.68h1.36l-1.63-2.86a2.05 2.05 0 00.99-.7c.25-.32.37-.74.37-1.26 0-.39-.06-.71-.2-.97a1.65 1.65 0 00-.52-.62 2.23 2.23 0 00-.8-.34 4.5 4.5 0 00-1-.11h-2.32v6.86zm.98-3.65h-.98v-2.23h.98c.47 0 .82.07 1.07.23s.38.43.38.83c0 .39-.13.68-.38.88s-.6.3-1.07.3zm8.81 3.65V69.3h-3.02v-2.02h2.47v-1.03h-2.47V64.5h2.92v-1.03H42.6v6.86zm3.86 0c.51 0 .97-.07 1.37-.22s.75-.36 1.03-.65.5-.65.65-1.09.23-.93.23-1.5c0-1.13-.3-1.98-.88-2.55s-1.4-.85-2.46-.85h-1.83v6.87zm-.14-.98h-.54v-4.9h.54c.69 0 1.23.2 1.6.58s.57 1 .57 1.84c0 .85-.19 1.47-.56 1.87s-.91.6-1.61.6zm6.58.98v-6.86h-1.22v6.86zm6.54 0V69.3h-3.03v-2.02h2.47v-1.03h-2.47V64.5h2.92v-1.03h-4.13v6.86zm3.13 0v-3l-.06-1.17-.1-1.15h.04l.7 1.46 2.14 3.87h1.25v-6.87h-1.16v2.98l.05 1.19.1 1.15h-.04l-.7-1.46-2.14-3.86h-1.25v6.86zm8.88 0V64.5h1.98v-1.03h-5.19v1.03h1.99v5.83zm5.35.13c.38 0 .73-.05 1.03-.16s.56-.26.78-.44a1.89 1.89 0 00.49-.65 1.87 1.87 0 00.16-.78c0-.26-.03-.48-.1-.67a1.69 1.69 0 00-.29-.51c-.12-.15-.27-.28-.44-.39s-.35-.2-.55-.3l-.94-.38-.4-.17a1.97 1.97 0 01-.36-.2c-.1-.07-.18-.16-.24-.25s-.09-.21-.09-.34c0-.26.1-.45.3-.6s.45-.21.78-.21c.3 0 .56.05.8.16s.47.24.7.43l.61-.78a2.98 2.98 0 00-.95-.64 2.93 2.93 0 00-2.08-.09c-.29.1-.53.24-.73.41a1.93 1.93 0 00-.48.62 1.7 1.7 0 00-.17.76c0 .25.04.47.12.67a1.75 1.75 0 00.32.51c.13.15.28.28.44.38a3.25 3.25 0 00.5.26l.94.41.43.2a1.9 1.9 0 01.34.2.81.81 0 01.22.26c.05.1.08.21.08.35 0 .27-.1.48-.3.64s-.5.24-.9.24c-.32 0-.63-.07-.95-.21a3.07 3.07 0 01-.84-.56l-.7.83a3.49 3.49 0 001.13.74 3.52 3.52 0 001.34.26z" fill="currentColor" stroke="none"/>
</svg>