<svg
  xmlns="http://www.w3.org/2000/svg" viewBox="0 0 100 100" aria-label="Natural ingredients">
  <path d="M71.75 54.46a23.68 23.68 0 10-47.36 0m52.31-13.6l13.1-5.43m-71.62 5.43l-13.1-5.43M29.52 11.6l5.54 13.06m-20.02-2.78l10.2 9.85M64.66 11.6l-5.54 13.05m20.73-2.78l-10.2 9.86M47.08 22.1V7.9" fill="none" stroke="#273583" stroke-width="3.2" stroke-linecap="round"/>
  <path d="M6.85 78.14v-6.21l-.12-2.43-.2-2.37h.08l1.45 3.02 4.43 7.99h2.59v-14.2h-2.41v6.16l.12 2.47.2 2.38h-.09l-1.45-3.02-4.43-7.99H4.44v14.2zm13.7 0l1.1-3.85h4.78l1.1 3.85h2.65l-4.62-14.2H22.6l-4.62 14.2zm5.31-5.82h-3.62l.5-1.74.65-2.3.6-2.39h.1l.61 2.37.67 2.32zm11.23 5.82V66.07h4.1v-2.13H30.47v2.13h4.1v12.06zm12.93.26c.83 0 1.57-.12 2.23-.36s1.22-.62 1.7-1.14.82-1.2 1.07-2 .37-1.82.37-3v-7.96h-2.41v8.16c0 .77-.08 1.41-.22 1.94s-.35.95-.6 1.27-.58.55-.94.69-.76.2-1.2.2-.82-.07-1.17-.2-.65-.37-.9-.69-.45-.74-.58-1.27-.2-1.17-.2-1.94v-8.16h-2.53v7.97c0 1.17.13 2.16.38 2.98s.62 1.49 1.09 2 1.03.9 1.7 1.15 1.4.36 2.22.36zm12.57-.26v-5.56h2.17l3.06 5.56h2.83l-3.39-5.93c.85-.29 1.54-.77 2.05-1.43s.77-1.54.77-2.63c0-.8-.13-1.46-.4-2s-.64-.96-1.1-1.29-1.01-.56-1.65-.7-1.32-.22-2.06-.22h-4.8v14.2zm2.02-7.56H62.6v-4.62h2.02c.97 0 1.71.16 2.23.48s.77.9.77 1.71c0 .8-.26 1.42-.77 1.83s-1.26.6-2.23.6zm10.05 7.56l1.11-3.85h4.77l1.11 3.85h2.65l-4.62-14.2h-2.96l-4.62 14.2zm5.32-5.82h-3.62l.5-1.74.65-2.3.6-2.39h.1l.61 2.37.66 2.32zm15.65 5.82V76h-5.9V63.94H87.2v14.2zM2.36 93.92V83.6H.53v10.32zm5.2 0v-4.51l-.08-1.77-.15-1.72h.07l1.06 2.2 3.22 5.8h1.88V83.6H11.8v4.48l.08 1.8.15 1.73h-.06l-1.06-2.2L7.7 83.6H5.82v10.32zm13.77.2c.7 0 1.34-.13 1.92-.36s1.03-.53 1.38-.88v-4.54h-3.6v1.5h1.95v2.22c-.16.15-.38.26-.64.34s-.55.12-.84.12c-1.04 0-1.83-.33-2.36-1s-.8-1.6-.8-2.77c0-.58.08-1.1.22-1.57s.36-.85.63-1.17a2.8 2.8 0 012.21-1c.49 0 .9.08 1.21.26s.62.38.88.64l.98-1.19c-.33-.33-.75-.64-1.26-.9s-1.13-.4-1.87-.4c-.68 0-1.32.11-1.91.35a4.36 4.36 0 00-1.55 1.06 5.03 5.03 0 00-1.04 1.7 6.36 6.36 0 00-.38 2.26c0 .86.12 1.6.37 2.28s.58 1.22 1.02 1.67.95.8 1.54 1.03 1.24.34 1.94.34zm8.26-.2v-4.04h1.58l2.22 4.04h2.05L33 89.62c.62-.2 1.12-.57 1.5-1.05s.55-1.12.55-1.9c0-.58-.1-1.06-.29-1.45a2.48 2.48 0 00-.8-.94c-.33-.24-.73-.4-1.2-.51a6.76 6.76 0 00-1.5-.16h-3.49v10.32zm1.46-5.5H29.6v-3.35h1.46c.7 0 1.25.11 1.62.34s.56.65.56 1.25-.18 1.03-.56 1.33-.91.44-1.62.44zm13.26 5.5v-1.54h-4.54v-3.05h3.7v-1.55h-3.7v-2.63h4.39V83.6h-6.22v10.32zm5.8 0c.77 0 1.46-.1 2.06-.33s1.12-.55 1.55-.99.75-.98.98-1.63.34-1.4.34-2.26c0-1.7-.44-2.98-1.33-3.83s-2.11-1.28-3.69-1.28h-2.76v10.32zm-.22-1.48h-.8v-7.36h.8c1.05 0 1.85.3 2.42.87s.85 1.5.85 2.76c0 1.28-.28 2.22-.84 2.82s-1.37.91-2.43.91zm9.9 1.48V83.6h-1.83v10.32zm9.84 0v-1.54H65.1v-3.05h3.7v-1.55h-3.7v-2.63h4.39V83.6h-6.22v10.32zm4.7 0v-4.51l-.08-1.77-.15-1.72h.06l1.06 2.2 3.22 5.8h1.88V83.6h-1.76v4.48l.1 1.8.14 1.73h-.06l-1.06-2.2-3.22-5.8H72.6v10.31zm13.36 0v-8.77h3.01V83.6h-7.8v1.55h2.99v8.77zm8.05.2c.58 0 1.1-.09 1.55-.25s.85-.39 1.17-.67a2.86 2.86 0 00.83-3.15 2.54 2.54 0 00-.43-.77c-.19-.22-.4-.41-.66-.58a4.84 4.84 0 00-.84-.44l-1.4-.59-.62-.26a2.96 2.96 0 01-.53-.3c-.15-.1-.27-.23-.36-.38s-.13-.31-.13-.51c0-.38.14-.68.44-.9s.69-.32 1.18-.32c.44 0 .84.08 1.2.24a4.6 4.6 0 011.04.65l.93-1.17a4.5 4.5 0 00-1.43-.95 4.4 4.4 0 00-1.74-.36 4.25 4.25 0 00-1.4.22 3.32 3.32 0 00-1.1.62c-.3.26-.54.57-.71.92s-.26.73-.26 1.14c0 .38.06.72.18 1a2.63 2.63 0 00.48.78c.2.22.43.4.67.57a4.89 4.89 0 00.75.4l1.42.6.64.3c.2.09.37.19.5.3s.26.24.34.39.12.32.12.53c0 .4-.16.72-.46.97s-.75.36-1.34.36c-.48 0-.95-.1-1.42-.32s-.9-.5-1.27-.85l-1.07 1.25a5.25 5.25 0 001.71 1.12c.65.26 1.32.4 2.02.4z" fill="#273583"/>
</svg>