<svg
  xmlns="http://www.w3.org/2000/svg" viewBox="0 0 100 100" stroke="currentColor" stroke-width="2.3" fill="none" aria-label="Vegan">
  <circle r="49.2" cy="50.1" cx="49.9"/>
  <path d="M31.8 77l2.9-9.4H33l-2.2 7.8-2.2-7.8h-1.8l3 9.4zm10.6 0v-1.4h-4.1v-2.8h3.4v-1.4h-3.4V69h4v-1.4h-5.7V77zm6.7.2c1.3 0 2.1-.5 3-1.1v-4.2h-3.3v1.4h1.8v2c-3 1.4-4.3-.8-4.3-3 0-3.2 3-4.5 4.8-2.6l.9-1a4.1 4.1 0 00-4.6-1c-1.6.8-2.7 2-2.7 4.6-.1 3.6 2.5 5 4.4 5zm6.3-.2l.7-2.5h3.2L60 77h1.8l-3.1-9.4h-2l-3 9.4zm3.5-3.8h-2.4l1.2-4.3 1.2 4.3zm6.4 3.8a64.6 64.6 0 00-.2-7.3c1.2 2.5 2.6 5 4 7.3h1.7v-9.4h-1.6c0 2.4 0 5 .2 7.3-1.2-2.5-2.6-4.9-4-7.3h-1.7V77z" fill="currentColor" stroke="none"/>
  <path d="M44.3 57.4c-8 0-14.4-6.3-14.4-14 0-20.5 26-10 38.2-19.9.3-.2-.3-.1 0 0s0-.3 0 0c3.7 21.1-11.7 33.9-23.8 33.9z"/>
  <path d="M50.9 39.6a47.4 47.4 0 00-16.3 8l-7.4 6.2"/>
</svg>