<svg
  xmlns="http://www.w3.org/2000/svg" viewBox="0 0 100 100" stroke="currentColor" fill="none" stroke-width="3" aria-label="Vegan">
  <path d="M20 99.4l5.4-17h-3.1L19.9 91l-.7 2.7-.8 2.8h-.1l-.8-2.8-.7-2.7-2.4-8.6h-3.2l5.3 17zm19.3 0V97h-7.5v-5H38v-2.6h-6.2v-4.4h7.3v-2.5H28.8v17zm12 .3c1.2 0 2.3-.1 3.2-.5s1.7-1 2.3-1.5v-7.5h-6v2.5h3.3v3.7l-1 .5-1.5.2c-1.7 0-3-.5-3.9-1.6s-1.3-2.7-1.3-4.6c0-1 .1-1.8.4-2.6s.6-1.4 1-2 1-.9 1.6-1.2 1.3-.4 2-.4c.9 0 1.5.2 2 .4s1 .7 1.5 1.1l1.6-2-2-1.5c-.8-.5-1.9-.6-3.1-.6-1.2 0-2.2.2-3.2.6s-1.8 1-2.6 1.7-1.2 1.7-1.7 2.8-.6 2.4-.6 3.8.2 2.6.6 3.7 1 2 1.7 2.8 1.6 1.3 2.6 1.7 2 .6 3.1.6zm11.4-.3l1.3-4.6h5.7l1.4 4.6h3.1l-5.5-17h-3.5l-5.6 17zm6.4-7h-4.4l.6-2 .8-2.8.7-2.9h.1l.8 2.9.8 2.8zm11.5 7V92l-.1-3-.3-2.8h.2l1.7 3.6 5.3 9.6h3.1v-17h-2.9v7.4l.2 3 .2 2.8-1.8-3.6-5.4-9.6h-3v17z" fill="currentColor" stroke="none"/>
  <path d="M42.7 64c-14.4 0-26-11.4-26-25.4 0-36.9 47-18.1 69-35.8 6 24.2-21 59.1-43 61.2z"/>
  <path d="M54.5 31.8c-18 3-28.8 14-42.6 25.6" stroke-linecap="round"/>
</svg>