<svg
  xmlns="http://www.w3.org/2000/svg" viewBox="0 0 100 100" aria-label="User">
  <path d="M57.8 60.083H42.2C21.653 60.1 4.994 73 4.97 87.015v8.387C4.97 97.1 6.986 100 9.473 100h81.055c2.487 0 4.503-2.902 4.503-4.598v-8.387C95.006 73 78.347 60.083 57.8 60.083zM86.024 92.33h-72.05v-5.315c0-10.638 12.64-19.26 28.234-19.26H57.8c15.593 0 28.234 8.624 28.234 19.26zM50 54.36a27.018 27.018 0 1 0-27.018-27.018A27.018 27.018 0 0 0 50 54.359zm0-45.03a18.012 18.012 0 1 1-18.012 18.012A18.012 18.012 0 0 1 50 9.328z"/>
</svg>