<svg xmlns="http://www.w3.org/2000/svg" stroke-linejoin="round" stroke-linecap="round" stroke="currentColor" fill="none" viewBox="0 0 24 24">
   <path d="M4 20l3-3m-3 0l3 3"/>
   <circle cy="18.6" cx="5.6" r="3.6"/>
   <path d="M16 20c-2.7.9-4.2-.5-5.5-2l-1.4.2m-4-3.2C3 8 5.4 3.6 6.4 3.3c2-.5 13 11.8 4 14.7"/>
   <path d="M12.6 9.5C16 6 18.4 3.9 20 4.6c1.7.9 1 7-.4 10.9l-6-3M7 13.3C5.6 7 6 4.9 6.4 3l3 10M11.4 12C8.2 4.9 7 3 6.4 3"/>
   <path d="M13.5 12c1.6-2.9 5.5-7.5 6-7.5 1 .2-.3 2-2.5 6.2M19 10.4l-1.5 4M19.6 15.5l1.4.8c-.6 1-1.4 1.8-2.3 2.7"/>
</svg>