<svg
  xmlns="http://www.w3.org/2000/svg" viewBox="0 0 100 100" fill="none" stroke="currentColor" stroke-width="3.563" stroke-linejoin="round" aria-label="Heart with an EKG trace">
  <path d="M6.155 46.1h28.057a2.1 2.1 0 0 0 1.745-.931l5.7-8.55a2.1 2.1 0 0 1 3.646.277l11.16 23.912a2.1 2.1 0 0 0 3.818-.034l5.965-13.424a2.1 2.1 0 0 1 1.917-1.259h25.72"/>
  <path d="M50.02 91.665L8.907 49.33C1.51 42.07-.337 30.858 4.343 21.612h0a24.5 24.5 0 0 1 38.964-6.238l6.712 6.12 6.712-6.12c5.55-5.464 13.367-7.962 21.057-6.73s14.336 6.046 17.903 12.97h0a23.79 23.79 0 0 1-4.56 27.717z"/>
</svg>