<svg
  xmlns="http://www.w3.org/2000/svg" viewBox="0 0 100 100" stroke="#273583" fill="none" stroke-width="3" aria-label="Vegan">
  <path d="M20.065 99.434L25.36 82.38h-3.103l-2.373 8.58-.717 2.764-.77 2.8h-.104l-.77-2.8-.743-2.764-2.4-8.58h-3.207l5.32 17.053zm19.27 0v-2.555h-7.5v-5.032h6.128V89.29h-6.128v-4.355h7.25V82.38H28.8v17.053zm12.02.313c1.165 0 2.22-.196 3.168-.587s1.708-.874 2.282-1.447h0v-7.5h-5.945v2.477h3.233v3.677c-.278.243-.634.43-1.07.56s-.895.196-1.382.196c-1.72 0-3.02-.552-3.898-1.656s-1.317-2.63-1.317-4.576c0-.956.122-1.817.365-2.58s.587-1.412 1.03-1.943.973-.94 1.59-1.226 1.308-.43 2.073-.43c.8 0 1.465.143 1.995.43s1.013.64 1.447 1.056h0l1.617-1.956c-.54-.556-1.23-1.056-2.073-1.5s-1.873-.665-3.1-.665c-1.13 0-2.186.2-3.168.6s-1.834.982-2.555 1.747-1.29 1.7-1.708 2.803-.626 2.35-.626 3.742c0 1.408.2 2.66.6 3.755s.96 2.016 1.682 2.764 1.573 1.312 2.555 1.695 2.047.574 3.194.574zm11.317-.313l1.33-4.615h5.737l1.33 4.615h3.18L68.698 82.38H65.15l-5.554 17.053zm6.388-6.988h-4.355l.6-2.086.782-2.777.73-2.855h.104l.743 2.842.795 2.8zm11.578 6.988v-7.457l-.143-2.92-.248-2.842h.104l1.747 3.624 5.32 9.596h3.103V82.38H87.63v7.405l.143 2.96.248 2.855h-.104l-1.747-3.624-5.32-9.596h-3.103v17.053z" fill="#273583" stroke="none"/>
  <path d="M42.694 63.954c-14.404-.002-26.08-11.37-26.08-25.4 0-36.822 47.177-18.082 69.09-35.787C91.68 26.99 64.66 61.933 42.694 63.954z"/>
  <path d="M54.54 31.774c-18.09 3.116-28.806 13.98-42.668 25.674" stroke-linecap="round"/>
</svg>