<svg
  xmlns="http://www.w3.org/2000/svg" viewBox="0 0 100 100" fill="currentColor" aria-label="Truck">
  <path d="M79 65a9.1 9.1 0 019.1 9 9.1 9.1 0 01-9.1 9.2 9.1 9.1 0 01-9.1-9.1 9.1 9.1 0 019-9.2zM79 79a5 5 0 100-10 5 5 0 000 10zM19.5 64.9a9.1 9.1 0 019.2 9.2 9.1 9.1 0 01-9.2 9 9.1 9.1 0 01-9-9c0-5 4-9.2 9-9.2zm0 14.2a5 5 0 100-10 5 5 0 000 10zM7 16.8h42.9c3.4 0 6.3 2.8 6.3 6.3l-.2 12.6h2.4c0-2.6 2-4.6 4.7-4.6h12.7a7.7 7.7 0 015.4 2.1l16 15.6a7.7 7.7 0 012.3 5.5v12.8c0 2.6-2.1 4.7-4.7 4.7h-4a12 12 0 00-23.5 0H31.3a12 12 0 00-23.5 0h-.9a6.3 6.3 0 01-6.3-6.3V23A6.3 6.3 0 017 16.8zm56.2 28.6c0 1 .9 2 2 2h18a2 2 0 001.3-3.4l-7.3-7.4a2 2 0 00-1.4-.5H65.1c-1.1 0-2 .8-2 2z"/>
</svg>