<svg
  xmlns="http://www.w3.org/2000/svg" viewBox="0 0 100 100" fill="#273583" aria-label="Sugar">
  <path d="M76.5 33.3l-8.3-6.6 4-5c-1.3-2-1.3-4.7.1-6.6 3.4-3.8 8.7-2 10.2 2.2 4.5.7 7.5 5.4 4.4 9.4a5.7 5.7 0 01-6.4 1.6zM73 26.2l3 2.4 3.8-4.7c1.3 1 3.5 2 4.5.7 2.1-2.9-1.5-5.4-4.7-3.5 1.2-4.6-2.7-6.2-4.5-3.9-.7 2.2.2 3 1.7 4.2z"/>
  <path d="M54 72.3a19.1 19.1 0 01-19.2-17.8 21.4 21.4 0 014.7-15.2c3.5-4.3 8.4-7.1 13.7-8l3.1-.1c8.2-.9 12.9-5.5 13-5.6l1-1 8.2 6.5-1 1.3c-3.3 4-2.8 11.3-2.5 14.2a21.5 21.5 0 01-4.4 17.5 21.2 21.2 0 01-16.5 8.2zM70.6 29a27 27 0 01-14 5.5l-3 .2a18 18 0 00-11.3 6.7 18 18 0 00-4 12.8 16 16 0 0015.9 14.7c5.4 0 10.4-2.5 14-6.9A18 18 0 0072 49.4c0-.8-.2-1.6-.3-2.2-.5-4-.7-10.7 2.1-15.5z"/>
  <path d="M46 87C22.6 87 .5 87 .5 66.8c0-19 20.4-34.6 45.5-34.6 1.2 0 2.5 0 3.7.2 10.1.6 9.7-.1.5 3.2a18.3 18.3 0 00-12 18.6 16 16 0 0015.9 14.7c5.4 0 10.4-2.5 14-6.9A18 18 0 0072 49.4c-.6-4-.4-7.4-.2-11.3a35.8 35.8 0 0119.5 26A11.7 11.7 0 0187.8 87H46zm-2.8-51.3c-22 1-39.4 14.6-39.4 31 0 15.8 16 16.9 42.2 16.9h41.8c4.6 0 8.4-3.8 8.4-8.4-.4-4.8-3.2-7.7-8.1-8.4-.3-10.4-7.4-18.4-13.3-22.7.1 2 .5 4.3.7 6.1 0 5-1.6 10-4.8 14A21.2 21.2 0 0154 72.3a19.1 19.1 0 01-19.3-17.8 21.4 21.4 0 018.4-18.8z"/>
</svg>