<svg xmlns="http://www.w3.org/2000/svg" viewBox="0 0 24 24" fill="none" stroke="currentColor" stroke-linecap="round" stroke-linejoin="round">
   <path d="M22.5 21.2l-1.3-1.4M17 15.6c2.4-2.7 1-5-.3-6-1 1.2-2.1 2.3-.8 5-2.3-1.3-3.7-.4-5 .7 2.5 2.4 4.3 1.8 6 .3"/>
   <path d="M16.1 10.3a5.5 5.5 0 00-1.5-3.2c-.6.8-2.3 1.7-1.1 5-2.4-1.1-3.5 0-5 1.1.8 1 1.8 1.4 2.9 1.6"/>
   <path d="M14 7.7c-.4-1-.8-2-1.6-2.4-1.4 1-1.6 2.6-1.3 4.5-2-.5-3.4.3-4.8 1A5 5 0 009 12.7"/>
   <path d="M12 5.8c-.3-.7-.6-1.8-1.7-2.9C9.4 4 8.4 4.5 9 7.7c-2.1-.8-3.6-.2-4.8 1 .6.7 1 1.3 2.7 1.9"/>
   <path d="M9 5c-1-.8-2.6-1.8-4.2-1.6-.2 1.2 0 2.5 1.5 4M18.8 17.5L9 7.7"/>
   <path d="M4 18.5L6.6 16M4 15.9l2.6 2.6"/>
   <circle r="3.6" cx="5.2" cy="17.3"/>
</svg>