<svg
  xmlns="http://www.w3.org/2000/svg" viewBox="0 0 100 100" aria-label="Twitter">
  <circle r="48.7" cy="50.1" cx="49.9" fill="none" stroke="#273583" stroke-width="2.3"/>
  <path d="M42.8 67.4c15.5 0 24-12.9 24-24v-1.2A18.2 18.2 0 0071 38a17 17 0 01-4.8 1.3c1.7-1 3-2.7 3.7-4.7a16.6 16.6 0 01-5.4 2 8.5 8.5 0 00-14.4 7.7 24 24 0 01-17.4-8.8 8.4 8.4 0 00-1.2 4.3 8.4 8.4 0 003.8 7 8.5 8.5 0 01-3.9-1c0 4.2 3 7.6 6.8 8.4a9 9 0 01-2.2.3c-.5 0-1 0-1.6-.2 1 3.4 4.2 5.8 8 5.9a17 17 0 01-12.6 3.5c3.7 2.4 8.2 3.8 13 3.8z" fill="#273583"/>
</svg>