<svg
  xmlns="http://www.w3.org/2000/svg" viewBox="0 0 100 100" fill="currentColor" aria-label="Information">
  <path d="M49.876 100c9.112 0 17.535-2.278 25.298-6.834a47.284 47.284 0 0 0 17.744-17.744c4.556-7.756 6.834-16.186 6.834-25.298S97.475 32.6 92.92 24.826A47.284 47.284 0 0 0 75.174 7.081C67.418 2.525 58.988.247 49.876.247c-9.03 0-17.422 2.278-25.178 6.834A49.082 49.082 0 0 0 6.834 24.946C2.278 32.7 0 41.094 0 50.124s2.278 17.422 6.834 25.178c4.316 7.516 10.23 13.466 17.744 17.864C32.334 97.722 40.764 100 49.876 100zm0-9.83a38.966 38.966 0 0 1-20.142-5.515 38.816 38.816 0 0 1-14.387-14.387 38.966 38.966 0 0 1-5.515-20.142 38.966 38.966 0 0 1 5.515-20.142 38.816 38.816 0 0 1 14.387-14.387 38.966 38.966 0 0 1 20.142-5.515 38.966 38.966 0 0 1 20.142 5.515 38.816 38.816 0 0 1 14.387 14.387 38.966 38.966 0 0 1 5.515 20.142 38.966 38.966 0 0 1-5.515 20.142 38.816 38.816 0 0 1-14.387 14.387 38.966 38.966 0 0 1-20.142 5.515zm4.916-55.032v-10.07h-9.83v10.07zm0 40.045V45.208h-9.83v29.974z"/>
</svg>