<svg
  xmlns="http://www.w3.org/2000/svg" viewBox="0 0 100 100" fill="currentColor" aria-label="500k customers">
  <circle cx="50" cy="50" r="49.2" fill="none" stroke="currentColor" stroke-width="2.3"/>
  <path d="M25.64 49.88c.68 0 1.33-.1 1.95-.33a4.9 4.9 0 001.65-.98c.48-.43.86-.96 1.14-1.6s.43-1.34.43-2.14c0-.79-.12-1.47-.37-2.05a4.04 4.04 0 00-1-1.43 4.02 4.02 0 00-1.46-.84 5.69 5.69 0 00-1.79-.28 3.77 3.77 0 00-1.94.49l.3-3.56h5.54v-2.24h-7.85l-.44 7.25 1.27.81c.45-.3.83-.5 1.16-.64s.72-.2 1.2-.2c.81 0 1.47.25 1.96.72s.74 1.16.74 2.04c0 .89-.27 1.58-.8 2.07s-1.2.74-2.04.74c-.74 0-1.39-.15-1.94-.47s-1.05-.68-1.5-1.1l-1.22 1.71a6.75 6.75 0 005.02 2.03zm12.19 0c1.54 0 2.75-.65 3.65-1.97s1.34-3.22 1.34-5.71c0-2.48-.45-4.36-1.34-5.64s-2.11-1.91-3.65-1.91-2.75.63-3.65 1.9-1.34 3.15-1.34 5.65.45 4.4 1.34 5.71 2.11 1.97 3.65 1.97zm0-2.07c-.35 0-.68-.1-.98-.3s-.56-.5-.77-.95-.39-1.03-.51-1.73-.19-1.59-.19-2.64c0-1.03.07-1.9.19-2.6s.3-1.26.5-1.7.48-.73.78-.9.63-.27.98-.27.68.1.98.27.56.48.77.9.39 1 .51 1.7.19 1.57.19 2.6c0 1.05-.07 1.93-.19 2.64s-.3 1.28-.5 1.73-.48.76-.78.96-.63.29-.98.29zm11.85 2.07c1.53 0 2.75-.65 3.64-1.97s1.34-3.22 1.34-5.71c0-2.48-.44-4.36-1.34-5.64s-2.1-1.91-3.65-1.91-2.75.63-3.64 1.9-1.34 3.15-1.34 5.65.44 4.4 1.34 5.71 2.1 1.97 3.64 1.97zm0-2.07c-.36 0-.69-.1-.99-.3s-.55-.5-.77-.95-.38-1.03-.5-1.73-.2-1.59-.2-2.64c0-1.03.07-1.9.2-2.6s.29-1.26.5-1.7.47-.73.77-.9.63-.27.99-.27.67.1.97.27.56.48.78.9.38 1 .5 1.7.2 1.57.2 2.6c0 1.05-.07 1.93-.2 2.64s-.29 1.28-.5 1.73-.48.76-.78.96-.62.29-.98.29zm10.52 1.8v-4.4l2.17-2.7 4.1 7.1h2.95L64 40.4l4.64-5.88h-2.98l-5.38 6.85h-.07v-6.85h-2.68v15.1zm16.12-2.29v-4.36h4.13v-1.94h-4.13v-4.37h-2.01v4.37h-4.13v1.94h4.13v4.36zM24.31 61.8a2.78 2.78 0 002.16-1l-.65-.76c-.2.2-.41.38-.65.5s-.5.2-.82.2c-.58 0-1.04-.22-1.38-.66s-.5-1.06-.5-1.84c0-.39.04-.73.13-1.04a2.32 2.32 0 01.4-.79 1.79 1.79 0 01.61-.49 1.72 1.72 0 01.77-.17c.27 0 .5.05.72.16a2.37 2.37 0 01.58.44l.66-.8c-.22-.22-.5-.42-.83-.6s-.72-.26-1.16-.26a3.11 3.11 0 00-1.22.24c-.38.16-.72.4-1 .7a3.37 3.37 0 00-.67 1.13c-.16.44-.25.95-.25 1.5 0 .57.08 1.08.24 1.52s.38.8.66 1.1a2.7 2.7 0 00.98.69c.38.15.78.23 1.22.23zm6.15 0a3.14 3.14 0 001.08-.17 2.01 2.01 0 00.82-.55c.22-.25.4-.58.52-.97s.17-.88.17-1.45v-3.85H31.9v3.95c0 .37-.04.68-.1.94s-.17.46-.3.61-.27.27-.45.33-.37.1-.58.1a1.53 1.53 0 01-.56-.1c-.17-.06-.32-.17-.44-.33s-.22-.36-.28-.61-.1-.57-.1-.94V54.8h-1.22v3.85c0 .57.06 1.05.18 1.45s.3.72.53.97a2.01 2.01 0 00.82.55 3.14 3.14 0 001.07.17zm6.64 0c.39 0 .73-.05 1.04-.16s.56-.26.77-.44a1.89 1.89 0 00.5-.65 1.87 1.87 0 00.16-.78c0-.26-.03-.48-.1-.67a1.69 1.69 0 00-.3-.5c-.12-.15-.26-.28-.43-.4s-.35-.2-.56-.29l-.93-.39-.4-.17a1.97 1.97 0 01-.36-.2c-.1-.07-.18-.16-.24-.25s-.1-.21-.1-.34c0-.25.1-.45.3-.6s.46-.21.79-.21c.3 0 .56.05.8.16s.47.24.7.43l.61-.78a2.98 2.98 0 00-.95-.64 2.93 2.93 0 00-2.09-.08c-.28.1-.52.23-.73.4a1.93 1.93 0 00-.48.62 1.7 1.7 0 00-.17.76c0 .25.04.48.12.67a1.75 1.75 0 00.32.52c.13.14.28.27.45.37a3.25 3.25 0 00.5.27l.94.4.43.2a1.9 1.9 0 01.33.2.81.81 0 01.22.26c.05.1.08.22.08.36 0 .26-.1.48-.3.64s-.5.24-.9.24c-.3 0-.62-.08-.94-.22a3.07 3.07 0 01-.84-.56l-.71.83a3.49 3.49 0 001.14.74 3.52 3.52 0 001.33.27zm6.55-.12v-5.84h1.99v-1.03h-5.19v1.03h1.99v5.83zm5.97.12c.44 0 .85-.08 1.22-.24s.7-.4.96-.72.48-.69.63-1.13.22-.94.22-1.5a4.65 4.65 0 00-.22-1.48 3.13 3.13 0 00-.63-1.1c-.27-.3-.59-.54-.96-.7s-.78-.24-1.22-.24-.86.08-1.23.24-.7.39-.96.7-.47.66-.62 1.1a4.65 4.65 0 00-.22 1.48c0 .56.08 1.06.22 1.5s.36.82.62 1.13a2.66 2.66 0 00.96.71 3 3 0 001.23.25zm0-1.06a1.51 1.51 0 01-1.3-.69 2.52 2.52 0 01-.35-.8 4.01 4.01 0 01-.13-1.04c0-.77.16-1.37.48-1.8s.75-.65 1.3-.65.97.22 1.3.65.47 1.04.47 1.8a4.01 4.01 0 01-.13 1.05c-.08.3-.2.57-.35.8s-.34.4-.56.5-.46.18-.73.18zm5.95.94v-3.14l-.02-.53-.04-.57-.05-.57-.05-.52h.04l.55 1.6 1.13 3.08h.72l1.13-3.08.55-1.6h.05l-.06.52-.05.57-.04.57-.01.53v3.14h1.12V54.8h-1.38l-1.19 3.36-.21.67-.22.67h-.04l-.22-.67-.22-.67-1.22-3.36h-1.37v6.87zm11.4 0v-1.03h-3.03v-2.03h2.46v-1.03h-2.47v-1.75h2.92v-1.03h-4.13v6.86zm3.06 0v-2.69h1.05l1.48 2.69h1.36L72.3 58.8a2.05 2.05 0 00.99-.7c.25-.31.37-.74.37-1.26 0-.39-.06-.7-.2-.97a1.65 1.65 0 00-.52-.62 2.23 2.23 0 00-.8-.34 4.5 4.5 0 00-1-.1h-2.32v6.86zm.97-3.66h-.97V55.8H71c.47 0 .83.08 1.08.23s.37.43.37.83c0 .4-.12.68-.37.88s-.6.3-1.08.3zm6.32 3.78c.39 0 .73-.05 1.04-.16s.56-.26.77-.44a1.89 1.89 0 00.5-.65 1.87 1.87 0 00.16-.78c0-.26-.04-.48-.1-.67a1.69 1.69 0 00-.3-.5c-.12-.16-.26-.28-.43-.4s-.35-.2-.56-.29l-.93-.39-.41-.17a1.97 1.97 0 01-.35-.2c-.1-.07-.18-.16-.24-.25s-.1-.21-.1-.34c0-.25.1-.45.3-.6s.46-.21.79-.21c.3 0 .56.05.8.16s.47.24.69.43l.62-.78a2.98 2.98 0 00-.95-.64 2.93 2.93 0 00-2.09-.08c-.28.1-.52.23-.73.4a1.93 1.93 0 00-.48.62 1.7 1.7 0 00-.17.76c0 .25.04.48.12.67a1.75 1.75 0 00.32.52c.13.14.28.27.45.37a3.25 3.25 0 00.5.27l.94.4.42.2a1.9 1.9 0 01.34.2.81.81 0 01.22.26c.05.1.08.22.08.36 0 .26-.1.48-.3.64s-.5.24-.9.24c-.31 0-.63-.08-.94-.22a3.07 3.07 0 01-.84-.56l-.71.83a3.49 3.49 0 001.13.74 3.52 3.52 0 001.34.27z"/>
</svg>