<svg
  xmlns="http://www.w3.org/2000/svg" viewBox="0 0 100 100" stroke="currentColor" stroke-width="2.3" fill="none" aria-label="60 day refund">
  <circle stroke-width="1.3" cx="50" cy="50" r="49.4"/>
  <path fill="currentColor" d="M31.9 48.2c.4 0 .8 0 1.1-.2a2.8 2.8 0 001-.6l.6-1c.2-.4.2-.8.2-1.2 0-.5 0-1-.2-1.3l-.5-.9c-.2-.3-.6-.4-.9-.5a3.3 3.3 0 00-1.1-.2c-.3 0-.7.1-1 .3l-1 .8c0-.6 0-1.2.2-1.6l.5-1a1.7 1.7 0 01.6-.6 2 2 0 01.9-.2 1.8 1.8 0 01.8.2 1.9 1.9 0 01.6.5l1-1-1-.8a3 3 0 00-1.5-.3 3.3 3.3 0 00-1.4.3c-.4.2-.8.5-1.1 1s-.6.9-.9 1.5-.3 1.4-.3 2.3c0 .8.1 1.4.3 2s.4 1 .7 1.4.7.7 1.1.8l1.3.3zm0-1.3c-.5 0-.9-.2-1.2-.5s-.5-1-.6-1.8c.3-.4.6-.7.9-.8l.8-.3c.5 0 .8.2 1 .4s.4.7.4 1.3c0 .5 0 1-.4 1.3s-.5.4-1 .4zm7.6 1.3c1 0 1.7-.4 2.3-1.2s.8-2 .8-3.6-.3-2.8-.8-3.6-1.4-1.2-2.3-1.2a2.6 2.6 0 00-2.3 1.2c-.6.8-.9 2-.9 3.6s.3 2.7.9 3.6 1.3 1.2 2.3 1.2zm0-1.3a1.1 1.1 0 01-.7-.2c-.2-.1-.3-.3-.4-.6l-.4-1v-1.7-1.7c0-.5.2-.8.4-1l.4-.6a1.2 1.2 0 01.7-.2 1.2 1.2 0 01.6.2l.5.6c.2.3.2.6.3 1V45c0 .4-.2.8-.3 1.1s-.3.5-.5.6a1.1 1.1 0 01-.6.2zM50.7 48c.7 0 1.3 0 1.9-.3s1-.5 1.4-.9.7-.9.9-1.5.3-1.3.3-2c0-1.6-.4-2.8-1.2-3.6s-2-1.2-3.4-1.2h-2.5V48zm-.2-1.3h-.7v-6.8h.7c1 0 1.7.3 2.2.8s.8 1.4.8 2.5c0 1.2-.3 2-.8 2.6s-1.2.9-2.2.9zm7.4 1.3l.7-2.5h3.2l.7 2.5h1.8l-3-9.5h-2L56.1 48zm3.5-3.9H59l.3-1.1.5-1.6.4-1.6.4 1.6.5 1.6zm7.5 4v-3.6l2.8-6H70L69 41l-.5 1-.4 1-.5-1-.4-1-1-2.5h-1.8l2.8 6V48zM25.8 61.1v-3.7h1.4l2 3.7h2l-2.3-4a2.8 2.8 0 001.4-1c.3-.4.5-1 .5-1.7 0-.5-.1-1-.3-1.3l-.7-.9a3 3 0 00-1.1-.4l-1.4-.2h-3.2v9.5zm1.3-5h-1.3V53H27c.7 0 1.2 0 1.5.3s.5.6.5 1.1c0 .6-.1 1-.5 1.3s-.8.4-1.5.4zm11.8 5v-1.4h-4.1V57h3.4v-1.4h-3.4V53h4v-1.4H33v9.5zm4 0v-4h3.5v-1.4H43v-2.7h4v-1.4h-5.7v9.5zm9.7.2c.6 0 1-.1 1.5-.3s.8-.4 1.1-.7.6-.8.7-1.4l.3-2v-5.3h-1.6v5.5c0 .5 0 1-.2 1.3l-.4.8-.6.5a2 2 0 01-.8.1 2.1 2.1 0 01-.8-.1 1.4 1.4 0 01-.6-.5l-.4-.8-.1-1.3v-5.5H49V57c0 .8.1 1.5.3 2s.4 1 .7 1.4.7.6 1.1.7l1.5.3zm8-.2v-4.1l-.1-1.7-.2-1.5h.1l1 2 3 5.3H66v-9.5h-1.6v4.1l.1 1.7.2 1.6h-.1l-1-2-3-5.4H59v9.5zm10.9 0c.7 0 1.3-.1 1.9-.3s1-.5 1.4-1 .7-.8.9-1.4.3-1.3.3-2c0-1.6-.4-2.8-1.2-3.6s-2-1.2-3.4-1.2h-2.5v9.5zm-.2-1.4h-.8v-6.7h.8c1 0 1.7.3 2.2.8s.8 1.4.8 2.5c0 1.2-.3 2-.8 2.6s-1.3.8-2.2.8z" stroke="none"/>
  <path d="M56.6 24.9l8 3.1 3.7-7.1M34.4 25a15.5 15.5 0 0130 2M44.8 75.6l-8-3.1-3.7 7M67 75.5a15.5 15.5 0 01-30-2" stroke-linejoin="round" stroke-linecap="round"/>
</svg>