<svg
  xmlns="http://www.w3.org/2000/svg" viewBox="0 0 100 100" fill="none" stroke="currentColor" stroke-width="3.7" stroke-linejoin="round" aria-label="Apple">
  <path d="M50 94c6.3 0 2 4.2 14.6 4.2s25-25.1 25-41.8S79.3 27 66.8 27 54.2 31.3 50 31.3s-4.2-4.2-16.7-4.2-23 12.6-23 29.3 12.5 41.8 25 41.8S43.8 94 50 94z"/>
  <path d="M50 31.3V23c0-4.7-3.7-8.4-8.4-8.4h-8.3" stroke-linecap="round"/>
  <path d="M61 20.5a18.8 18.8 0 0016-16 2.2 2.2 0 00-2.5-2.4 18.8 18.8 0 00-16 16 2.1 2.1 0 002.5 2.4z"/>
</svg>