<svg
  xmlns="http://www.w3.org/2000/svg" viewBox="0 0 100 100" fill="none" stroke="#273583" stroke-width="3.855" aria-label="Female torso with arrows pointing to flanks">
  <path d="M49.96 98.046v-14.6m-27.5-81.41L24.725 12.9a39.18 39.18 0 0 1-6.449 29.433c-7.263 10.64-9.225 23.9-7.267 39.026l3.47 16.697m70.96-.01L88.9 81.35c1.94-15.136 0-28.385-7.267-39.026a39.18 39.18 0 0 1-6.449-29.433l2.254-10.853M1.954 27.082h14.6M12.4 20.82l4.174 6.26-4.174 6.26m85.563-6.258h-14.6m4.165-6.262l-4.174 6.26 4.174 6.26" stroke-linecap="round" stroke-linejoin="round"/>
  <path d="M11.138 60.477c13.086.672 38.82 22.96 38.82 22.96s25.735-22.287 38.82-22.96z"/>
  <path d="M49.96 42.736c.576 0 1.044.467 1.044 1.044m-2.09 0c0-.576.467-1.044 1.044-1.044m.001 2.087c-.576 0-1.044-.467-1.044-1.044m2.086.001c0 .576-.467 1.044-1.044 1.044" stroke-linecap="round"/>
</svg>