<svg
  xmlns="http://www.w3.org/2000/svg" viewBox="0 0 100 100" fill="#273583" aria-label="Sugar">
  <path d="M24 41.5h44.4a2.5 2.5 0 100-5H30.6l9.8-8.5H66l13.4 13v13c-9.6-.8-22.5-.5-37.4 3.5h-5.7C33.7 47.1 23 44 22.6 43.8h-1c-4.7.7-12.8 7-14.2 14H3C.9 58 .4 59.4.6 61c6.3 16 33.9 16.4 43.4 1 14-3.7 26.3-3.9 35.5-3v20.5c-1.6 1.6-7.8 6.6-25 6.6-17 0-25.4-4-28-5.6V79a2.5 2.5 0 00-5 0c-.1 1.9-.1 3.7 1 5 .3.3 9 7.3 32 7.3 6.3-.2 28.2-1.7 30-10.7V59.7c7.3 1.2 11.6 2.8 11.7 2.8A2.5 2.5 0 0098 58c-.4-.2-5.3-2-13.6-3.2V39.9c0-.6-.2-1.3-.7-1.7l-11-10.6c.8-.4 1.3-1.2 1.3-2.1V11.3c0-1.4-1-2.5-2.4-2.5H34.4a2.5 2.5 0 00-2.5 2.5v14.2c0 1 .5 1.7 1.3 2.1l-10.8 9.5c-1 2-1 3.7 1.6 4.4zM37 13.8H69V23h-2.5v-4.7a2.5 2.5 0 00-5 0V23h-2.4v-4.7a2.5 2.5 0 00-5 0V23h-2.4v-4.7a2.5 2.5 0 00-5 0V23h-2.4v-4.7a2.5 2.5 0 00-5 0V23H37v-9.2zm-15.1 35c1.7.7 7.3 3.1 9.3 8.7l-18.5.2c1.4-4.3 6.6-8.1 9.2-8.9zM7.5 62.7l29.7-.2c-6.5 7-23.6 8.2-29.7.2z"/>
</svg>