<svg
  xmlns="http://www.w3.org/2000/svg" viewBox="0 0 100 100" fill="none" stroke="#273583" stroke-width="3" stroke-linecap="round" stroke-linejoin="round" aria-label="60 day refund">
  <path fill="#273583" d="M25.03 48.9a4.02 4.02 0 002.8-1.13c.37-.36.65-.8.87-1.3s.32-1.1.32-1.73c0-.67-.1-1.25-.27-1.74s-.44-.9-.76-1.23a3.06 3.06 0 00-1.18-.72 4.55 4.55 0 00-1.5-.24c-.47 0-.95.13-1.45.4a4.19 4.19 0 00-1.3 1.1c.02-.88.12-1.62.28-2.22s.39-1.08.65-1.45.58-.62.93-.78a2.7 2.7 0 011.13-.24 2.53 2.53 0 011.12.27c.37.18.66.4.89.68l1.24-1.4c-.39-.4-.86-.73-1.4-1.01s-1.22-.42-2-.42a4.34 4.34 0 00-3.46 1.64c-.45.56-.82 1.27-1.1 2.15s-.42 1.94-.42 3.17c0 1.07.12 1.99.37 2.77s.58 1.43 1 1.94.9.88 1.46 1.13 1.15.37 1.78.37zm-.04-1.75c-.63 0-1.15-.25-1.57-.76s-.69-1.32-.8-2.45c.35-.53.73-.9 1.13-1.13s.78-.33 1.14-.33c.64 0 1.13.19 1.47.56s.52.94.52 1.7c0 .78-.18 1.38-.54 1.79a1.73 1.73 0 01-1.35.62zm10.43 1.75c1.33 0 2.38-.56 3.15-1.7s1.16-2.78 1.16-4.94c0-2.14-.39-3.76-1.16-4.86s-1.82-1.66-3.15-1.66-2.38.55-3.15 1.65-1.15 2.72-1.15 4.87.38 3.8 1.15 4.94 1.83 1.7 3.15 1.7zm0-1.79a1.54 1.54 0 01-.84-.25c-.26-.17-.49-.44-.67-.83s-.33-.88-.44-1.5-.16-1.36-.16-2.27c0-.89.05-1.64.16-2.24s.25-1.1.44-1.47.4-.63.67-.79a1.64 1.64 0 01.84-.22 1.64 1.64 0 01.85.22c.26.16.48.42.67.8s.33.85.44 1.46.16 1.35.16 2.24c0 .9-.05 1.66-.16 2.28s-.25 1.1-.44 1.5-.41.65-.67.82a1.54 1.54 0 01-.85.25zm15.48 1.56c.97 0 1.84-.14 2.6-.42a5.21 5.21 0 003.2-3.31c.28-.83.42-1.78.42-2.86 0-2.15-.55-3.77-1.67-4.84s-2.67-1.62-4.67-1.62h-3.5v13.05zm-.28-1.88H49.6v-9.3h1.02c1.32 0 2.33.37 3.05 1.1s1.08 1.9 1.08 3.5c0 1.61-.36 2.8-1.07 3.56s-1.73 1.15-3.06 1.15zm10.14 1.88l1.01-3.53h4.4l1 3.53h2.44l-4.25-13.05h-2.7L58.4 48.67zm4.88-5.35h-3.33l.46-1.6.6-2.12.56-2.18H64l.57 2.17.6 2.14zm10.3 5.35v-4.85l3.93-8.2h-2.41l-1.42 3.33-.58 1.43-.62 1.45h-.08l-.6-1.45-.55-1.43-1.42-3.33h-2.47l3.9 8.2v4.85zM16.62 66.8v-5.11h2l2.8 5.1H24l-3.11-5.44c.78-.27 1.41-.7 1.89-1.32s.7-1.41.7-2.4c0-.74-.12-1.35-.37-1.84s-.58-.89-1-1.19-.93-.52-1.52-.65a8.54 8.54 0 00-1.9-.2h-4.4V66.8zm1.85-6.94h-1.86V55.6h1.85c.9 0 1.58.14 2.05.44s.7.82.7 1.57c0 .75-.23 1.3-.7 1.68s-1.15.56-2.05.56zm16.24 6.94v-1.96h-5.75V61h4.69v-1.95h-4.69v-3.33h5.54v-1.95h-7.85V66.8zm5.53 0v-5.45H45V59.4h-4.75v-3.7h5.56v-1.96h-7.88V66.8zm13.3.24c.75 0 1.43-.1 2.04-.33a3.82 3.82 0 001.55-1.05c.43-.48.76-1.1.99-1.85s.34-1.66.34-2.74v-7.32h-2.22v7.5c0 .7-.06 1.3-.2 1.79s-.32.87-.55 1.16-.53.5-.86.63-.7.2-1.1.2-.76-.07-1.08-.2-.59-.33-.82-.63-.42-.68-.54-1.16-.2-1.08-.2-1.79v-7.5h-2.3v7.32c0 1.08.11 2 .35 2.74s.56 1.37 1 1.85a3.82 3.82 0 001.55 1.05c.6.22 1.28.33 2.04.33zm10.93-.24v-5.7l-.1-2.24-.2-2.18h.09l1.33 2.78 4.07 7.34h2.38V53.75h-2.22v5.67l.1 2.26.2 2.19h-.09l-1.33-2.78-4.07-7.34h-2.38V66.8zm15.02 0c.97 0 1.84-.14 2.6-.42a5.21 5.21 0 003.2-3.31c.28-.83.42-1.78.42-2.86 0-2.15-.55-3.77-1.67-4.84s-2.67-1.62-4.67-1.62h-3.5V66.8zm-.28-1.88h-1.02v-9.3h1.01c1.32 0 2.33.37 3.05 1.1s1.08 1.9 1.08 3.5c0 1.61-.36 2.8-1.07 3.56s-1.73 1.15-3.06 1.15z" stroke="none"/>
  <path d="M70.3 83.2c-3 9.06-11.77 14.99-21.39 14.46S31.24 90.3 29.27 80.98"/>
  <path d="M39.67 84.17l-11.25-4.6-5.46 10M57.17 16.82l11 4.29 5.15-9.8m-46.64 5.76C29.8 8.02 38.7 2.17 48.36 2.82s17.67 7.64 19.53 17.04"/>
</svg>