<svg
  xmlns="http://www.w3.org/2000/svg" viewBox="0 0 100 100" fill="currentColor" aria-label="Medicine">
  <path d="M47.4 70.6a2.6 2.6 0 105.2 0v-5.1h5.1a2.6 2.6 0 100-5.2h-5.1v-5.1a2.6 2.6 0 10-5.2 0v5.1h-5.1a2.6 2.6 0 100 5.2h5.1z"/>
  <path d="M81.6 8.7v7.8a8.4 8.4 0 01-2.6 16v58.8c0 4.6-3.7 8.4-8.4 8.4H29.4a8.4 8.4 0 01-8.4-8.4V32.6a8.4 8.4 0 01-2.6-16.1V8.7c0-4.6 3.7-8.4 8.4-8.4h46.4c4.7 0 8.4 3.8 8.4 8.4zm-56.8 0c0-1 1-2 2-2h46.4c1 0 2 1 2 2v7.1H24.8zm2.6 23.9h45.2V39H27.4zm0 12.9h45.2v34.8H27.4zm0 45.8v-4.5h45.2v4.5c0 1-.9 2-2 2H29.4c-1.1 0-2-1-2-2zm-7.7-67.1c0-1 .8-2 2-2h56.7a2 2 0 010 4H21.6c-1 0-2-1-2-2z" fill-rule="evenodd"/>
</svg>