<svg
  xmlns="http://www.w3.org/2000/svg" viewBox="0 0 100 100" fill="none" stroke="#273583" stroke-width="3.696" stroke-linejoin="round" aria-label="Apple">
  <path d="M50 93.975c6.267 0 2.09 4.178 14.622 4.178s25.066-25.066 25.066-41.777S79.243 27.132 66.7 27.132 54.177 31.31 50 31.31s-4.178-4.178-16.71-4.178S10.3 39.665 10.3 56.376s12.533 41.777 25.066 41.777S43.732 93.975 50 93.975z"/>
  <path d="M50 31.31v-8.355c-.014-4.61-3.747-8.342-8.355-8.355h-8.355" stroke-linecap="round"/>
  <path d="M60.978 20.522A18.8 18.8 0 0 0 76.974 4.53a2.16 2.16 0 0 0-2.444-2.444 18.8 18.8 0 0 0-15.992 15.997 2.15 2.15 0 0 0 2.44 2.44z"/>
</svg>