<svg
  xmlns="http://www.w3.org/2000/svg" viewBox="0 0 493.8 97.9" aria-label="PhenLife">
  <path d="M0 93c0 2 2 4 3 4s4-2 4-4V62h25c19 0 35-10 35-29C67 15 53 5 33 5H3C2 5 0 6 0 8zm7-37V11h26c16 0 27 8 27 22S49 56 32 56zm70 38c0 2 2 3 4 3s3-1 3-3V58c0-14 10-24 23-24s21 9 21 23v37c0 2 1 3 3 3s3-1 3-3V56c0-16-9-28-26-28-12 0-20 6-24 14V4c0-2-2-4-4-4s-3 2-3 4zm74-34c1-15 12-26 25-26 15 0 23 12 24 26zm52 27l1-2a3 3 0 00-5-2c-5 5-12 9-22 9-13 0-25-10-26-26h52c2 0 4-2 4-3 0-19-12-35-31-35-18 0-32 16-32 35 0 21 16 35 33 35 12 0 20-4 26-11zm14 7c0 2 1 3 3 3s3-1 3-3V58c0-14 10-24 23-24 14 0 21 9 21 23v37c0 2 2 3 4 3s3-1 3-3V56c0-16-10-28-27-28-12 0-19 6-24 14V32c0-2-1-3-3-3s-3 2-3 3zm70-8a10 10 0 0010 10h48a9 9 0 009-9 9 9 0 00-9-9h-38V14a10 10 0 10-20 0zm70-76c0 6 5 9 11 9s12-3 12-9-5-10-12-10-11 4-11 10zm1 77a10 10 0 1020 0V35a10 10 0 10-20 0zm34 0a10 10 0 1020 0V43h8a8 8 0 100-16h-8v-3c0-5 2-7 7-7h1c5 0 9-4 9-9s-4-7-7-7l-8-1c-7 0-13 2-16 5s-6 10-6 17v5h-1a8 8 0 00-8 8c0 5 4 8 8 8h1zm53-31c2-9 7-15 15-15s14 6 15 15zm41 33c2-1 3-3 3-6 0-4-3-7-8-7l-5 1c-4 3-8 5-14 5-9 0-15-5-17-14h40c5 0 9-4 9-9 0-15-11-34-34-34-20 0-35 16-35 36v1c0 21 16 36 37 36 10 0 18-3 24-9z"/>
</svg>