<svg
  xmlns="http://www.w3.org/2000/svg" viewBox="0 0 579.9 119.1" fill="#444">
  <path d="M60.2 116.6l10-100.2c.7-5.1 1.7-6 3.4-6h1V4.7H58.2v5.7h1c2.2 0 3.4 1.6 3.1 6l-5.8 60-6.7-60c-.6-4.7.5-6 3-6h.4V4.7H30.3v5.7h1.2c2.1 0 2.1.9 2.6 6l1.7 15.3-5.3 48.5-6-63.8c-.7-5.1.3-6 2.6-6h.3V4.7H4.2v5.7h1.2c2.4 0 2.6.9 3.1 6l10.3 100.2h14.8L39.5 65l6 51.5h14.7zm98.3-65.7c0-7 0-9.4 4.4-9.4 3 0 3 1.2 3 7v59.8c0 2.1-.7 2.5-1.9 2.5h-.7v5.8h23v-5.8h-1c-1.6 0-2-.5-2-2.8V45.4C183.3 35 181 31 171 31c-5.8 0-10.1 1.9-12.8 8.3-1.2-5.7-4.2-8.3-12-8.3-6.4 0-9.9 2-12.4 8.3V31L114 32.7v5.7h.8c1.3 0 2.3 1 2.3 4.1v65c0 2.6-.5 3.3-2.3 3.3h-.8v5.8h22v-5.8h-.9c-1.1 0-1.4-.4-1.4-2V50.8c0-7-.2-9.4 4.3-9.4 3 0 3 1.2 3 7v59.8c0 2.1-.8 2.5-1.8 2.5h-1v5.8H161v-5.8h-.3c-1.6 0-2.1-.5-2.1-2.8V51zm160.4 65.7h27.6v-5.7h-1.9c-2.4 0-3.1-1-3.1-6V61.8H356v43c0 5-.7 6-3 6H351v5.8h27.4v-5.8H376c-2.4 0-2.8-1-2.8-6V16.5c0-5.1.4-6 2.8-6h2.3V4.7h-27.4v5.7h2.1c2.3 0 3 .9 3 6v38.7h-14.5V16.4c0-5.1.7-6 3.1-6h1.9V4.7h-27.6v5.7h2.5c2.3 0 3 .9 3 6v91.3c0 2.4-.7 3.2-3 3.2h-2.5v5.7zm208 0h21.9v-5.7h-.7c-1.5 0-1.6-.5-1.6-2.2V51c0-7 .1-9.4 4.6-9.4 3.2 0 3.2 1.2 3.2 7v59.8c0 2.1-.5 2.5-1.5 2.5h-1v5.8h23v-5.8h-1c-1.5 0-1.8-.5-1.8-2.8V45.4C572 35 569.5 31 559.5 31c-6.6 0-10.3 2-13 8.3V3l-21 1.7v5.7h2.2c1.4 0 2.2.9 2.2 4v93.2c0 2.5-.4 3.2-2.2 3.2h-.8v5.8zm-436 1c18.3 0 21-15.3 21-43.3 0-28-2.8-43.2-21-43.2-18 0-20.7 15.1-20.7 43.2 0 28 2.5 43.3 20.8 43.3zm138.3-1h22v-5.7h-1c-1.3 0-1.3-.5-1.3-2.2V51c0-7 0-9.4 4.6-9.4 3.1 0 3.3 1.2 3.3 7v59.8c0 2.1-.9 2.5-1.8 2.5h-1v5.8h23.1v-5.8h-1c-1.5 0-2-.5-2-2.8V45.4c0-10.3-2.4-14.3-12.5-14.3-6.4 0-10.3 2-12.7 8.3V31l-21.1 1.6v5.7h2.3c1.3 0 2.3 1 2.3 4.1v65c0 2.6-.6 3.3-2.3 3.3h-.9v5.8zm202.5 1c7.5 0 10.4-3.8 12-8.2 1.4 6.6 3 8.2 11.5 8.2 10 0 11.3-6 11.1-17.7h-4.7c0 8.4-.1 9.2-1.7 9.2-1.4 0-1.4-.7-1.4-5.4V48.2c0-11.2-3.7-17.1-16.9-17.1-10.4 0-20.6 3.1-20 14.4.2 5.1 2.2 10.6 7.6 10.3 5-.3 7.3-3 7.3-7.1 0-2.9-2.1-7.6-5.6-10.2 1.3-.5 3.3-1.1 6.6-1.1 3.7 0 4.4 2.8 4.4 8.3v15.5c-19 6.4-23 9-23 32.8 0 17.1 4.2 23.6 12.8 23.6zm-32.7 0c14.1 0 17.4-4.3 16.7-27.7h-5.9c0 18.5-.5 20-7.1 20-7.9 0-7.9-3.5-7.9-35.3V72h22.9c0-32-3.6-40.9-18.7-40.9-13.7 0-20.8 8.4-20.8 43.8 0 33.7 5.4 42.8 20.8 42.7zm-189.6 0c13.8 0 17.7-4.3 17.1-27.7h-5.8c0 18.5-.9 20-7.6 20-8.4 0-8-3.5-8-35.3V72h22.1c0-32-3-40.9-17.8-40.9-13.8 0-21 8.4-21 43.8 0 33.7 5.4 42.8 21 42.7zm260-1h22.9v-5.7h-1.7c-1.5 0-2-.8-2-3V3l-21.3 1.7v5.7h2.4c1.5 0 2 .6 2 2.9V108c0 2.2-.1 2.8-1.1 2.8h-1.1v5.7zm-166.6 1c10.4 0 15.9-6.9 15.9-17.2 0-24-21.9-38-21.9-55.3 0-5.3 1.9-6.9 5.6-6.9 5.4 0 6.3 2.3 7.3 10.5l.8 8h6.3V31.7h-5c-.3 3.2-1 4.3-1.3 3.9a14.7 14.7 0 00-11.4-4.6c-9.1 0-17.1 4.1-17.1 17.7 0 21.1 21.7 37.2 21.7 53.3 0 7-1.6 8.2-6.6 8.2S291 108 290 97.4l-.8-7h-6.5v26.2h5.7c.4-2.9 1.4-4.8 2.3-3.9 1.8 2.1 3.8 4.9 12.2 4.9zm193.8-18.7c0 13.5 2 18.7 15.4 18.7 9.4 0 11.5-3.8 11.5-14.2v-14h-5.7V104c0 5-.4 5.6-2.3 5.6-1.8 0-2.2-.6-2.2-5V38.2h10.4v-6.4h-10.3V10.4h-5.9c-4 19-7.7 21.4-13.2 21.4h-1.6v6.3h3.9v60.8zM91 110.3c-4 0-4-2.3-4-36 0-33.8 0-36 4-36s4 2.2 4 36 0 36-4 36zm188.1-75c14.3-10.5 17.2-18.5 12.5-25.7-2.6-4-8.5-6.6-12.7-3-5.2 4.2-3.9 11.7 5.7 16-1.7 2-5.7 5.8-9 9l3.5 3.8zm159.4 72.3c-3.4 0-3.4-3.6-3.4-14.9 0-20.5 0-23.2 6.8-27V101c0 5.3-.7 6.6-3.4 6.6zM205.1 66c.3-26.7.7-28 4.4-28 3.6 0 3.3 1.4 3.3 28h-7.7zm189.7 0c.5-26.7.8-28 4.5-28s3.1 1.4 3.1 28h-7.6z"/>
</svg>