<svg
  xmlns="http://www.w3.org/2000/svg"
  xmlns:xlink="http://www.w3.org/1999/xlink" viewBox="0 0 798.2 199.6" fill="#382757">
  <linearGradient id="a" gradientUnits="userSpaceOnUse" x1="76.9" y1="136.1" x2="44.4" y2="97.5">
    <stop offset="0" stop-color="#ce5dcb"/>
    <stop offset=".2" stop-color="#c558cc"/>
    <stop offset=".6" stop-color="#ac4acf"/>
    <stop offset="1" stop-color="#8534d4"/>
    <stop offset="1" stop-color="#8333d4"/>
  </linearGradient>
  <path fill="url(#a)" d="M13.5 134.2c18 18 47.4 18 65.4 0l1.7-1.7c9-9-9-56.4 0-65.4l-67 67.1z"/>
  <linearGradient id="b" gradientUnits="userSpaceOnUse" x1="78" y1="92.1" x2="147.7" y2="92.1">
    <stop offset="0" stop-color="#ff5667"/>
    <stop offset=".7" stop-color="#fc8b82"/>
    <stop offset="1" stop-color="#fba28e"/>
  </linearGradient>
  <path fill="url(#b)" d="M82.4 65.4L80.6 67c-9 9 9 56.3 0 65.4l67.1-67.1a46 46 0 00-65.3 0"/>
  <defs>
    <path id="c" d="M13.5 68.8c-18 18-18 47.4 0 65.4l68.9-68.8c18-18 18-47.4 0-65.4L13.5 68.8z"/>
  </defs>
  <linearGradient id="d" gradientUnits="userSpaceOnUse" x1="0" y1="67.1" x2="95.9" y2="67.1">
    <stop offset="0" stop-color="#00b874"/>
    <stop offset=".5" stop-color="#29d3a2"/>
    <stop offset=".7" stop-color="#53dfb6"/>
    <stop offset="1" stop-color="#9ff4d9"/>
  </linearGradient>
  <use xlink:href="#c" overflow="visible" fill="url(#d)"/>
  <linearGradient id="e" gradientUnits="userSpaceOnUse" x1="65.4" y1="132.5" x2="161.3" y2="132.5">
    <stop offset="0" stop-color="#fcd77e"/>
    <stop offset=".5" stop-color="#fea500"/>
    <stop offset="1" stop-color="#ff5b00"/>
  </linearGradient>
  <path fill="url(#e)" d="M78.9 134.2c-18 18-18 47.3 0 65.4l68.8-68.9c18-18 18-47.3 0-65.3L79 134.2z"/>
  <path d="M415.5 100.1a51.4 51.4 0 00-64-35 51.4 51.4 0 00-35 64v.1a48.5 48.5 0 0024.8 30.8 51.5 51.5 0 0064.8-12.8l.4-.5c1.7-2.1 3.2-4.4 4.5-6.8a8.8 8.8 0 00-15.3-8.6 33.6 33.6 0 01-20.1 16 34.3 34.3 0 01-38.7-15l72.7-21.3a8.8 8.8 0 006-10.9zm-49.4-19.6a34.2 34.2 0 0128.6 15.6l.5.9-63.3 18.5a34 34 0 0134.2-35zm39.4 66zM508.8 149.6h-48l53.7-79a4.9 4.9 0 00-4-7.6H442a8.2 8.2 0 000 16.5H488l-53.7 79a4.9 4.9 0 004 7.6h70.6a8.2 8.2 0 000-16.5zM615.3 149.6h-48l53.7-79a4.9 4.9 0 00-4-7.6h-68.3a8.2 8.2 0 000 16.5h45.8l-53.8 79a4.8 4.8 0 004 7.6h70.6a8.2 8.2 0 000-16.5zM662.8 18.5a8.2 8.2 0 00-8.2 8.2v131.4a8.2 8.2 0 0016.4 0V26.7c0-4.5-3.7-8.2-8.2-8.2zM797.8 100.2A51.5 51.5 0 00703 89.9c-6.6 12-8.1 26-4.3 39.2v.1c.9 3 2.3 6.7 2.3 6.8a48.6 48.6 0 0022.5 24 51.5 51.5 0 0064.8-12.7l.5-.6c1.7-2.1 3.2-4.4 4.5-6.8a8.8 8.8 0 00-15.3-8.6 33.6 33.6 0 01-20.1 16 34.3 34.3 0 01-38.7-15l72.7-21.3a8.8 8.8 0 006-10.8zm-49.5-19.7A34.2 34.2 0 01777 96.1l.5.9-63.2 18.5a34 34 0 0134.1-35zM288.8 120.3c-2.4-3.6-6-6.5-10.4-8.8-7.4-3.8-17-5.5-26.1-7l-1.5-.2c-6.4-1-13-2-17.3-4.2-3.3-1.6-4.4-3.4-4.4-7 0-7 7.6-12.2 17.6-12.2 12 0 18.7 3.5 26.2 8a8.9 8.9 0 109.2-15 61.2 61.2 0 00-35.4-10.7c-9.2 0-17.9 2.8-24.3 7.9-7.1 5.6-11 13.4-11 22 0 10.3 4.8 18.2 14 22.9 6.9 3.4 15 4.6 22.7 5.8l1.5.3c20 3.1 25.7 6 25.7 12.5 0 8.2-8.2 13.6-20.9 13.7h-.4a41.3 41.3 0 01-25.4-8l-1.8-1.3a8.8 8.8 0 00-12.3 2.8 8.9 8.9 0 002.9 12.3l1 .6.2.2c4.9 3.3 16.3 11.1 35.4 11.1h.6a44 44 0 0027.4-8.5c7.1-5.8 11-13.9 11-22.9a25 25 0 00-4.2-14.3z"/>
</svg>