<svg
  xmlns="http://www.w3.org/2000/svg" viewBox="0 0 453 101.1" aria-label="Klama">
  <path d="M79.7 0H57.4c0 18.3-8.4 35-23 46l-8.8 6.6 34.2 46.6h28.1L56.4 56.3C71.3 41.5 79.7 21.5 79.7 0zM0 0h22.8v99.2H0zm94.5 0H116v99.2H94.5zm210.1 28.7c-8.2 0-16 2.5-21.2 9.6v-7.7H263v68.6h20.7v-36c0-10.4 7-15.5 15.4-15.5 9 0 14.2 5.4 14.2 15.4v36.2h20.5V55.6c0-16-12.7-26.9-29.2-26.9zM181 30.6V35c-5.8-4-12.8-6.3-20.4-6.3-20 0-36.2 16.2-36.2 36.2s16.2 36.2 36.2 36.2c7.6 0 14.6-2.3 20.4-6.3v4.4h20.5V30.6zm-18.7 51.9c-10.3 0-18.6-7.9-18.6-17.6s8.3-17.6 18.6-17.6 18.6 7.9 18.6 17.6-8.3 17.6-18.6 17.6zm71-43v-8.9h-21v68.6h21.1v-32c0-10.8 11.7-16.6 19.8-16.6h.2v-20c-8.3 0-16 3.6-20.1 8.9zm164.3-8.9V35c-5.8-4-12.8-6.3-20.4-6.3-20 0-36.2 16.2-36.2 36.2s16.2 36.2 36.2 36.2c7.6 0 14.6-2.3 20.4-6.3v4.4h20.5V30.6zm-18.7 51.9c-10.3 0-18.6-7.9-18.6-17.6s8.3-17.6 18.6-17.6 18.6 7.9 18.6 17.6c.1 9.7-8.3 17.6-18.6 17.6zm61.1-7.6c-7.1 0-12.9 5.8-12.9 12.9s5.8 12.9 12.9 12.9 12.9-5.8 12.9-12.9c0-7.2-5.8-12.9-12.9-12.9z"/>
</svg>