<svg
  xmlns="http://www.w3.org/2000/svg" viewBox="0 0 109 34" fill="#444">
  <path d="M27.46 33.08h1.41v.35h-6.14v-.35h1.54V1.07h-1.4V.7h6.75c1.8 0 3.04.94 3.96 2.39a9.2 9.2 0 011.37 4.33c.16 2.14-.03 4.26-.83 6.29-.32.8-.73 1.56-1.33 2.2a3.3 3.3 0 01-2.19 1.1c-.1 0-.28.02-.28.08 0 .1.15.15.23.17a4.03 4.03 0 013.38 3.57c.17 1.48.22 2.97.3 4.45.1 1.61.15 3.22.24 4.84.02.38.11.76.2 1.14.08.4.27.74.7.84.43.1.68-.2.92-.48.06-.06.1-.14.15-.21l.09-.08.02.16-.01.07a4.45 4.45 0 01-1.03 1.62 2 2 0 01-3.01-.23 4.73 4.73 0 01-.98-2.56c-.13-2.1-.21-4.22-.26-6.33-.04-1.4-.14-2.8-.54-4.15a9 9 0 00-.65-1.6 1.6 1.6 0 00-1.52-.92l-.52-.02c-.56 0-.57 0-.57.57v15.13zm0-16.92v.46c-.01.25.12.32.36.33.98.02 1.73-.43 2.36-1.13.56-.63.84-1.4 1.06-2.2.35-1.29.46-2.61.58-3.95.2-2.17-.15-4.24-.93-6.26a5.03 5.03 0 00-1.2-1.9c-.3-.27-.62-.44-1.04-.44h-.84c-.24 0-.36.08-.35.34v14.75zM9.5 23.48V17.3H7.98v-.35h6.36v.35h-1.62v15.58l-.01.51c0 .05-.01.12-.1.12-.07 0-.07-.05-.08-.08-.06-.23-.1-.47-.18-.69-.1-.26-.18-.53-.33-.77a.83.83 0 00-1.06-.34c-.3.12-.57.3-.82.49-.4.32-.79.67-1.17 1.03-1 .94-2.13 1-3.34.47a5.33 5.33 0 01-2.05-1.65 12.7 12.7 0 01-2.05-4.14c-.62-1.98-.99-4-1.22-6.07-.29-2.6-.38-5.2-.12-7.8.33-3.25.94-6.43 2.29-9.43.45-1.01.99-1.96 1.73-2.79A4.24 4.24 0 016.66.3c1.05-.18 1.92.07 2.56.96.15.2.32.42.52.56.54.38 1.04.27 1.36-.31.13-.24.17-.53.26-.79.02-.05.04-.15.1-.15.07 0 .1.12.1.18l.12 2.72.29 7.3c.01.27.05.55.06.83 0 .06-.02.17-.08.17s-.1-.1-.11-.16c-.13-.8-.24-1.62-.38-2.42a28.56 28.56 0 00-1.44-5.68A6.16 6.16 0 008.8 1.39 3.45 3.45 0 007.8.68C7.24.4 6.76.53 6.37 1.03c-.3.4-.57.87-.76 1.34a16.6 16.6 0 00-1.04 4.05c-.28 2.03-.57 4.05-.73 6.09-.2 2.6-.32 5.2-.1 7.81.09 1.03.09 2.07.17 3.1A34 34 0 005.1 30.6c.2.65.5 1.29.82 1.89.3.53.72 1 1.41.98.71-.03 1.1-.54 1.4-1.11.53-1.06.73-2.21.76-3.38.04-1.83.02-5.5.02-5.5zM62.77 33.44c2.52-10.52 5.32-21.54 7.78-31.86.09-.38-.04-.51-.43-.52h-2.84c-1.1 0-1.82.43-2.41 1.25a7.95 7.95 0 00-1.27 3.22c-.26 1.32-.25 4-.25 4h-.26V.71h11.19l-7.92 31.7-.07.3c-.08.27.05.36.3.36h3.04a3.7 3.7 0 003.25-1.77 6.86 6.86 0 001.08-3.47c.06-1.05.06-3.9.06-3.9h.32v9.5zM50.88 33.43v-.37h1.28l-1.64-9.18H45.8l-1.68 9.18h1.59v.37h-3.42v-.37h1.33L49.78.22l5.67 32.84h1.26v.37h-5.83zm-.38-9.93l-2.23-12.85-2.38 12.85h4.6zM103.18 33.43v-.37h1.29l-1.64-9.18H98.1l-1.68 9.18h1.6v.37H94.6v-.37h1.32L102.08.22l5.67 32.84h1.26v.37h-5.83zm-.38-9.93l-2.23-12.85L98.2 23.5h4.61zM88.5.71v.39h-1.37v31.98h1.37v.35h-5.97v-.35h1.39V1.1h-1.39V.7z"/>
</svg>