<svg
  xmlns="http://www.w3.org/2000/svg" fill="#232F3E" fill-rule="evenodd" viewBox="0 0 150 29" aria-label="Amazon Pay">
  <path d="M11.7 16.6c-.2.2-.5.2-.7.1-1-.8-1.2-1.2-1.7-2C7.7 16.4 6.5 17 4.4 17 2 16.9 0 15.3 0 12.3c0-2 1.2-4 3.1-4.8 1.6-.7 3.9-.9 5.6-1 .2-1 0-2.2-.4-2.7-.3-.5-1-.7-1.6-.7-1.2 0-2.2.5-2.4 1.7 0 .3-.3.5-.5.6L.9 5.2a.5.5 0 01-.4-.7C1.2 1.1 4.3 0 7.1 0c1.4 0 3.3.4 4.4 1.5 1.5 1.3 1.3 3.1 1.3 5v4.7c0 1.4.6 2 1.1 2.7.2.3.3.6 0 .8l-2.2 1.9zm-3.6-4c-.4.8-1.2 1.3-2 1.3-1.1 0-1.8-.8-1.8-2.1 0-2.5 2.3-3 4.4-3 0 1.3 0 2.9-.6 3.8zm11.6 3.9h-3a.6.6 0 01-.4-.5V1c0-.3.2-.6.5-.6h2.8c.3 0 .5.3.5.6v2c.8-2 2.1-2.9 4-2.9 1.7 0 3 1 3.8 2.8 1.3-3 5.3-3.6 7.4-1.1 1 1.3.8 3.1.8 4.7V16c0 .3-.3.5-.6.5h-3a.6.6 0 01-.4-.5L32 5c-.2-1-1-1.3-1.8-1.3s-1.6.6-1.7 1.3c-.4 3-.3 7.2-.3 10.9 0 .3-.3.5-.6.5h-3a.6.6 0 01-.4-.5V8c0-1.7.2-4.2-1.9-4.2-2 0-2 2.4-2 4.2v8c0 .3-.3.5-.6.5m32.9-2.6c-.6-.8-1.2-1.4-1.2-2.7V6.6c0-2 .2-3.8-1.3-5.1-1-1-3-1.5-4.4-1.5-2.8 0-6 1-6.6 4.5-.2.3.1.7.5.7l2.8.3c.3 0 .5-.3.5-.6.3-1.2 1.3-1.7 2.4-1.7.6 0 1.3.2 1.7.7.4.8.3 1.7.3 2.5-1.7.2-4 .3-5.5 1a5 5 0 00-3.2 4.9c0 3 2 4.6 4.4 4.6 2.1 0 3.3-.5 4.9-2.2.5.8.7 1.2 1.7 2h.7l2.2-2c.3-.2.3-.5 0-.8zm-5.8-1.3c-.5.8-1.2 1.3-2 1.3-1.2 0-1.9-.9-1.9-2.1 0-2.5 2.3-3 4.4-3 0 1.4 0 2.8-.5 3.8zM55 3V.8c0-.3.3-.6.6-.5h9.7c.3 0 .6.2.6.5v1.9c0 .3-.3.7-.8 1.4l-5 7.1c1.9 0 3.8.2 5.5 1.2.3.2.5.5.6.8v2.4c0 .3-.4.6-.8.5-3.2-1.7-7-1.7-10.2 0-.3.2-.7-.2-.7-.5v-2.2c0-.6.1-1 .4-1.5l5.8-8.4h-5A.5.5 0 0155 3m19.2.1C72 3.1 72 6.1 72 8c0 1.9 0 5.8 2.3 5.8s2.4-3.2 2.4-5.1c0-2.7-.2-5.4-2.5-5.6zm6.7 5.5c0 4.6-2.6 8.2-6.7 8.2-4.3 0-6.6-3.7-6.6-8.4S69.9 0 74.2 0c5.4 0 6.6 5 6.7 8.6zm5.7 7.9h-3a.6.6 0 01-.4-.6V1c0-.4.2-.6.5-.6h2.8c.2 0 .4.2.5.4v2.4C88 1 89 0 91 0c1.4 0 2.7.5 3.5 1.8.8 1.2.8 3.2.8 4.7V16c0 .3-.3.5-.6.5h-3a.6.6 0 01-.5-.5V7.8c0-1.7.2-4-1.8-4a2 2 0 00-1.7 1.1c-.4 1-.5 1.9-.5 2.9v8.1c0 .4-.3.6-.6.6m24-13.9c-1.5 0-3 .5-4.1 1.4v8.6c1.3 1 2.6 1.5 4 1.5 2.9 0 4.3-1.9 4.3-5.7 0-3.8-1.4-5.8-4.2-5.8zm-4.3-.4a7 7 0 012.5-1.5c1.7-.7 3.7-.7 5.4 0 .8.4 1.5 1 2 1.6a8 8 0 011.3 2.6c.3 1 .4 2.2.4 3.4 0 1.1-.1 2.3-.4 3.4-.3 1-.8 1.9-1.4 2.6a6 6 0 01-2 1.7 7 7 0 01-7.6-1.2V22c0 .4-.2.7-.6.6H104a.5.5 0 01-.6-.6V1.2c0-.4.2-.7.6-.6h1.4c.4 0 .6.3.7.6zm19.3 12.2c.8 0 1.5-.2 2.2-.4a8 8 0 002.1-1.2V9.6c-1-.3-2.2-.4-3.3-.4-2.3 0-3.5 1-3.5 2.7 0 .8.2 1.4.7 1.8.4.5 1 .7 1.8.7zm-4.1-11c-.2 0-.4-.2-.4-.5V2c0-.5.3-.8.6-.9 3.2-1 7.2-1.7 9.7.3 1 .8 1.4 2 1.4 3.7v10.6c0 .4-.2.7-.6.6h-1.3a.6.6 0 01-.7-.6l-.2-1c-.7.6-1.5 1.1-2.4 1.5-.9.3-1.8.5-2.7.5-1.5 0-2.7-.4-3.5-1.3-.9-.8-1.3-2-1.3-3.3 0-1.5.5-2.7 1.6-3.6 1-1 2.5-1.4 4.3-1.4 1.3 0 2.6.2 3.9.6v-2c0-1.2-.3-2-.7-2.4-.5-.5-1.4-.7-2.6-.7-1.9 0-3.5.4-5.1.8zM142.9 19a7.6 7.6 0 01-2 3c-.7.7-1.7 1-2.8 1-.6 0-1.2 0-1.8-.2a.9.9 0 01-.5-.3 1 1 0 01-.2-.6V21c0-.4.2-.6.5-.6h.5l.8.1c.7 0 1.3-.2 1.8-.6.5-.3.9-1 1.2-2l.6-1.6-6-14.7-.2-.7c0-.3.2-.4.5-.4h1.8c.3 0 .5 0 .7.2l.4.6 4.3 12 4.2-12 .3-.6c.2-.2.5-.2.7-.2h1.7c.3 0 .5.1.5.4l-.2.7-6.8 17.3"/>
  <path fill="#F90" d="M59 22.5a37 37 0 01-45.5-3.3c-.4-.5 0-1.1.7-.8a50.3 50.3 0 0044 2.8c1-.4 1.8.6.9 1.3m2.3-2.7c.7 1-.8 4.7-1.5 6.3-.2.5.2.7.7.4 3-2.5 3.7-7.7 3.1-8.5-.6-.7-5.8-1.4-9 .9-.4.3-.3.8.2.7 1.8-.2 5.8-.7 6.5.2"/>
</svg>