<svg
  xmlns="http://www.w3.org/2000/svg" viewBox="0 0 100 100" fill="currentColor" aria-label="WhatsApp">
  <path d="M85 14.8A49.1 49.1 0 007.7 74.2l-7 25.5L26.8 93a49.5 49.5 0 0058.4-78.3zM50.5 90.6A40 40 0 0129.7 85l-1.6-.8-15.6 4 4-15.3-1-1.7A40.7 40.7 0 0128.5 15a40.6 40.6 0 0156.2 13.2 40.6 40.6 0 01-34.4 62.4zm13-34.7c-.9 0-1.4.3-2 .6l-4 4.5c-.3.6-.8.8-1.3.8a32.8 32.8 0 01-10.5-6.2 32.7 32.7 0 01-7.8-9.6c0-.6 0-1.1.2-1.4a40 40 0 003.3-4c.5-.8.8-1.9.5-2.7-.3-1.3-3.5-8.6-4.3-10.2-.9-1-1.5-1.4-2.7-1.4a7.7 7.7 0 00-7 3.3c-1.9 2.4-3 5.3-3 8.3 0 2.2.6 4.3 1.4 6.2A52.5 52.5 0 0059 72c1.8.5 3.7.5 5.4.5 1.3 0 3-.5 4-1a14 14 0 005.4-4.7c.7-1 .9-2.4 1-3.7.2-.6 0-2 0-2-4-1.9-7.8-4-11.5-5.3z"/>
</svg>