<svg
  xmlns="http://www.w3.org/2000/svg" viewBox="0 0 119 32" fill="#444">
  <path d="M8.7 32c5.8 0 9.5-3.4 9.5-7.5 0-4.8-2.5-6.9-7-10.4-5.4-4.4-5.9-5.6-5.9-7 0-1.8 1.2-2.8 3.8-2.8 2.1 0 4.3 1.2 6 2.6L17 2.7C15.4 1.3 12.8 0 8.9 0 4 0 .6 3 .6 7.1c0 4.4 2 6.1 7.2 10.3 4.4 3.7 5.6 4.8 5.6 7.2 0 1.9-1.5 3.2-4.7 3.2-2.4 0-5-1.6-6.8-3.2L0 28.7A13 13 0 008.7 32zM85 .3h-5.6v31.5h5v-9.1h.7c7.9 0 12.6-5.4 12.6-11.4C97.7 4 92.6.3 85 .3zM119 5V.3h-15.4v31.5H119v-4.6h-10.4v-9h9.3v-4.7h-9.3V5H119zM84.3 18.2V4.7h.7c4 0 7.6 1.4 7.6 6.6 0 5.2-3.6 7-7.6 7h-.7zm-19.3 4h-7.5l3.8-12 3.7 12zm-26.6-8.7h-10V.3h-5v31.5h5V18.2h10v13.6h5V.3h-5v13.2zm29.7 18.3h5L62.6.3h-2.4L49.7 31.8h4.7l1.7-5.2h10.4l1.6 5.2z"/>
</svg>