<svg
  xmlns="http://www.w3.org/2000/svg" viewBox="0 0 380 94.72" aria-label="PhenQ">
  <defs>
    <clipPath id="A">
      <path d="M175.3 30.75c15.3 0 23 12.43 23.94 25.9H150.7c1.18-14.78 11.38-25.9 24.6-25.9m-31.4 28.9v.26c0 20.8 15.17 34.8 32.7 34.8 12 0 19.5-4.3 26-10.86a3.12 3.12 0 0 0 1.05-2.22 3.07 3.07 0 0 0-3.14-3 2.82 2.82 0 0 0-2.09.92c-5.36 5.23-12 9.16-21.6 9.16-13.08 0-25-9.7-26.16-26.3H203a3.26 3.26 0 0 0 3.14-3c0-19.1-11.9-34.54-30.6-34.54-18.06 0-31.66 15.44-31.66 34.8m78.88-20.8v-9.15a3.21 3.21 0 1 0-6.41 0V90.4a3.16 3.16 0 0 0 3.27 3.27 3.05 3.05 0 0 0 3.14-3.27V54.56c0-13.87 10.08-23.8 23.16-23.8 13.47 0 21.2 9 21.2 22.76v36.9a3.16 3.16 0 0 0 3.27 3.27 3.06 3.06 0 0 0 3.14-3.27V52.34c0-16-9.8-27.48-26.7-27.48-12.16 0-19.62 6.15-24.07 14m-216-31H32.7c16.48 0 27.73 7.6 27.73 22.1v.27c0 13.6-11.5 22.5-28.52 22.5H6.8zM3.4 1.58A3.46 3.46 0 0 0 0 5v85.27a3.47 3.47 0 0 0 3.4 3.41 3.47 3.47 0 0 0 3.4-3.41V59h24.73c19.1 0 35.7-9.95 35.7-29.18v-.26c0-17.66-13.86-28-34-28zm300.33 45.8v-.27c0-15.7 11.25-28.52 27.47-28.52s27.74 13.08 27.74 28.8v.26a32.06 32.06 0 0 1-2.49 12.55l-10.07-9a9.33 9.33 0 0 0-6.68-2.75 9.5 9.5 0 0 0-9.42 9.57 9.91 9.91 0 0 0 3.72 7.55l9.55 8.1a27.53 27.53 0 0 1-12 2.48c-16.22 0-27.73-13.08-27.73-28.77m-21.07 0v.26c0 26 20.28 47.1 48.54 47.1a49.82 49.82 0 0 0 27.21-7.85l5 4.45a9.43 9.43 0 0 0 16.09-6.8 9.87 9.87 0 0 0-3.67-7.59L372 73.66a47 47 0 0 0 8-26.29v-.27C380 21.07 359.72 0 331.46 0s-48.8 21.32-48.8 47.36M76.8 3.27V90.4a3.16 3.16 0 0 0 3.27 3.27 3.05 3.05 0 0 0 3.14-3.27V54.56c0-13.87 10.08-23.8 23.16-23.8 13.48 0 21.2 9 21.2 22.76v36.9a3.16 3.16 0 0 0 3.27 3.27 3.05 3.05 0 0 0 3.18-3.27V52.34c0-16-9.8-27.48-26.68-27.48-12.17 0-19.63 6.15-24.08 14V3.27A3.23 3.23 0 0 0 79.93 0a3.13 3.13 0 0 0-3.14 3.27"/>
    </clipPath>
    <linearGradient id="B" x1=".6" y1="47.5" x2="379.8" y2="47.5" gradientUnits="userSpaceOnUse">
      <stop offset="0" stop-color="#283583"/>
      <stop offset=".41" stop-color="#1666af"/>
      <stop offset=".8" stop-color="#068fd5"/>
      <stop offset="1" stop-color="#009fe3"/>
    </linearGradient>
  </defs>
  <g clip-path="url(#A)">
    <path d="M0 0h380v94.72H0z" fill="url(#B)"/>
  </g>
</svg>